<svg width="24" height="24" viewBox="0 0 24 24" fill="none" xmlns="http://www.w3.org/2000/svg">
<g id="eye-on">
<path id="Vector" d="M12 5C7.86118 5 3.61311 8.48009 2.24895 11.3827C2.06488 11.7743 2.06489 12.2257 2.24895 12.6173C3.61311 15.5199 7.86118 19 12 19C16.2115 19 20.5361 15.3966 21.8202 12.4649C21.9504 12.1677 21.9504 11.8323 21.8202 11.5351C20.5361 8.60338 16.2115 5 12 5Z" stroke="black" stroke-width="2"/>
<path id="Vector_2" d="M14 12C14 13.1046 13.1046 14 12 14C10.8954 14 10 13.1046 10 12C10 10.8954 10.8954 10 12 10C13.1046 10 14 10.8954 14 12Z" stroke="black" stroke-width="2"/>
</g>
</svg>
